<?xml version="1.0" standalone="no"?>
<!DOCTYPE svg PUBLIC "-//W3C//DTD SVG 20010904//EN"
 "http://www.w3.org/TR/2001/REC-SVG-20010904/DTD/svg10.dtd">
<svg version="1.0" xmlns="http://www.w3.org/2000/svg"
 width="1024.000000pt" height="1024.000000pt" viewBox="0 0 1024.000000 1024.000000"
 preserveAspectRatio="xMidYMid meet">
<metadata>
Created by potrace 1.14, written by Peter Selinger 2001-2017
</metadata>
<g transform="translate(0.000000,1024.000000) scale(0.100000,-0.100000)"
fill="#000000" stroke="none">
<path d="M4969 10236 c-2 -2 -31 -6 -64 -9 -245 -24 -519 -128 -698 -265 -44
-33 -175 -170 -204 -213 -43 -62 -97 -174 -118 -240 l-17 -56 -351 -1 c-194 0
-363 -3 -377 -7 -14 -3 -37 -7 -52 -10 -60 -11 -194 -74 -210 -99 -4 -6 -8 -7
-8 -2 0 10 -134 -124 -143 -144 -4 -8 -17 -31 -28 -50 -61 -100 -71 -152 -76
-390 -3 -107 -6 -196 -7 -197 -1 -1 -238 -4 -526 -6 -486 -4 -549 -6 -605 -24
-11 -4 -25 -8 -32 -9 -7 -1 -34 -9 -60 -18 -26 -9 -52 -16 -57 -15 -5 0 -12
-3 -15 -8 -3 -4 -33 -21 -66 -38 -62 -31 -163 -95 -150 -95 5 0 -11 -14 -33
-30 -23 -17 -42 -35 -42 -40 0 -6 -7 -10 -15 -10 -8 0 -15 -3 -15 -7 0 -5 -18
-28 -40 -53 -22 -25 -40 -48 -40 -52 0 -5 -8 -16 -17 -26 -46 -46 -134 -250
-150 -347 -3 -16 -9 -50 -13 -75 -5 -25 -8 -1564 -8 -3420 -1 -3638 -3 -3440
49 -3595 95 -279 304 -499 575 -603 44 -17 91 -33 105 -35 13 -2 31 -7 39 -10
8 -4 35 -10 60 -13 61 -8 7032 -9 7095 -1 153 19 349 95 435 169 11 10 20 16
20 13 0 -11 115 97 176 166 28 31 106 155 127 199 18 41 39 94 38 98 -1 1 6
16 14 32 8 16 15 32 14 35 -1 5 10 72 19 115 3 14 7 1551 8 3416 2 2749 0
3404 -11 3460 -7 38 -13 69 -13 69 0 0 -5 20 -12 45 -17 64 -62 173 -77 188
-7 7 -13 18 -13 24 0 43 -250 318 -289 318 -5 0 -14 6 -21 14 -27 33 -239 126
-325 142 -11 2 -31 7 -45 11 -14 4 -270 8 -569 10 -300 2 -547 5 -549 8 -2 2
-5 91 -7 197 -1 106 -5 203 -8 214 -67 266 -267 448 -527 481 -25 3 -191 6
-370 7 l-324 1 -12 40 c-6 22 -21 61 -33 87 -11 26 -21 50 -21 53 0 10 -72
120 -81 123 -5 2 -9 9 -9 15 -1 27 -149 164 -255 238 -97 66 -324 163 -431
183 -16 3 -45 8 -64 12 -52 9 -65 12 -65 14 0 7 -398 23 -406 16z m261 -480
c25 -3 65 -8 89 -11 23 -3 47 -8 53 -11 5 -3 24 -8 41 -11 17 -3 44 -11 59
-19 16 -8 28 -12 28 -9 0 3 10 0 23 -7 12 -7 24 -12 27 -13 20 -1 147 -85 187
-124 97 -92 140 -184 149 -317 8 -124 53 -202 143 -245 45 -22 51 -23 501 -24
501 -1 503 -1 541 -61 20 -32 20 -43 15 -291 -4 -142 -6 -285 -5 -318 0 -33 1
-138 2 -232 l2 -173 -31 -30 c-17 -17 -40 -32 -52 -33 -12 -1 -22 -4 -22 -7 0
-7 -119 -4 -127 3 -3 3 -15 2 -27 -3 -13 -4 -29 -4 -36 0 -8 5 -18 6 -24 3
-14 -9 -67 -9 -73 0 -2 4 -9 5 -14 1 -13 -7 -138 -9 -145 -1 -3 3 -16 2 -28
-3 -13 -4 -29 -4 -36 0 -8 5 -18 6 -24 3 -14 -9 -67 -9 -73 0 -2 4 -9 5 -14 1
-13 -7 -138 -9 -145 -1 -3 3 -16 2 -28 -3 -13 -4 -29 -4 -36 0 -8 5 -18 6 -24
3 -14 -9 -67 -9 -73 0 -2 4 -9 5 -14 1 -13 -7 -138 -9 -145 -1 -3 3 -16 2 -28
-3 -13 -4 -29 -4 -36 0 -8 5 -18 6 -24 3 -14 -9 -67 -9 -73 0 -2 4 -9 5 -14 1
-13 -7 -138 -9 -145 -1 -3 3 -16 2 -28 -3 -13 -4 -29 -4 -36 0 -8 5 -18 6 -24
3 -14 -9 -67 -9 -73 0 -2 4 -9 5 -14 1 -13 -7 -138 -9 -145 -1 -3 3 -16 2 -28
-3 -13 -4 -29 -4 -36 0 -8 5 -18 6 -23 3 -9 -5 -128 -7 -152 -3 -5 2 -14 2
-19 1 -12 -3 -447 -2 -461 0 -5 1 -14 1 -19 0 -12 -3 -447 -2 -461 0 -5 1 -14
1 -19 0 -12 -3 -447 -2 -461 0 -5 1 -14 0 -20 -1 -5 -1 -88 -1 -184 -1 -155 1
-178 4 -207 21 -57 36 -57 38 -57 554 0 517 -1 511 60 552 26 17 58 18 498 19
453 1 472 2 515 22 84 39 138 117 146 215 13 152 27 194 94 288 96 135 324
243 559 265 30 3 56 6 57 8 4 4 149 -1 194 -7z m-3243 -1700 c7 -3 13 -1 13 4
0 5 13 5 30 0 17 -5 30 -5 30 -1 0 8 65 5 87 -3 7 -3 13 -1 13 4 0 5 13 5 30
0 17 -5 30 -6 30 -2 0 4 54 7 120 7 66 0 120 -3 120 -6 0 -3 20 -3 44 1 25 4
52 3 60 -2 10 -5 16 -5 16 1 0 5 9 7 20 4 18 -5 20 -14 21 -97 0 -50 3 -104 5
-121 10 -63 62 -205 76 -205 5 0 8 -5 8 -10 0 -27 97 -136 160 -180 19 -13 37
-27 40 -30 8 -9 81 -41 145 -64 l60 -21 1983 -2 c1090 -2 1982 1 1982 5 0 5 6
9 13 9 97 4 279 116 352 217 16 23 32 43 35 46 7 5 64 120 66 133 1 4 2 9 3
12 0 3 1 7 2 10 0 2 5 19 10 37 6 18 12 82 14 142 2 59 6 110 9 113 7 7 153 6
165 -1 6 -4 11 -3 11 3 0 6 11 6 30 1 16 -5 30 -5 30 -1 0 8 65 5 87 -3 7 -3
13 -1 13 4 0 5 13 5 30 0 17 -5 30 -6 30 -2 0 4 54 7 120 7 66 0 120 -4 120
-8 0 -5 5 -5 11 -1 12 7 276 7 289 -1 5 -3 11 -1 15 5 4 6 10 8 15 5 5 -3 28
-8 53 -10 104 -13 219 -75 293 -159 44 -50 102 -152 96 -170 -2 -5 3 -13 10
-17 20 -13 24 -6774 4 -6839 -21 -70 -37 -100 -82 -165 -43 -62 -62 -81 -111
-112 -15 -9 -30 -20 -33 -23 -12 -13 -87 -42 -139 -54 -46 -10 -703 -13 -3541
-11 -2314 1 -3497 6 -3521 12 -20 6 -43 14 -50 19 -8 5 -20 9 -28 11 -8 1 -17
5 -20 10 -3 4 -19 15 -35 23 -81 41 -196 199 -209 287 -3 17 -8 36 -11 42 -11
16 -7 6723 3 6759 5 17 7 32 4 32 -3 0 1 7 8 17 8 9 12 17 9 17 -8 2 48 110
70 133 11 12 20 26 20 30 1 10 115 96 155 116 41 21 140 44 195 46 24 1 45 3
46 4 5 4 238 -2 251 -7z"/>
<path d="M3680 6598 c0 -5 -4 -7 -9 -4 -20 13 -89 -30 -153 -94 -37 -37 -68
-65 -68 -61 0 3 -4 0 -9 -7 -10 -16 -631 -641 -631 -635 0 2 -14 -12 -31 -32
l-32 -36 -182 180 c-100 99 -194 185 -210 191 -105 40 -201 23 -274 -51 -17
-17 -38 -44 -46 -60 -21 -39 -35 -145 -21 -159 5 -5 7 -10 3 -10 -4 0 4 -21
17 -47 31 -61 552 -581 611 -610 53 -27 154 -25 208 3 38 20 887 860 879 869
-3 3 -1 5 5 5 19 0 177 170 202 217 58 109 17 240 -100 316 -37 24 -159 43
-159 25z"/>
<path d="M5049 6100 c-47 -14 -93 -49 -139 -106 -10 -14 -36 -103 -35 -124 5
-102 52 -176 140 -224 l40 -21 1515 -1 c1680 -1 1568 -6 1638 66 51 51 56 59
70 108 14 45 14 130 0 138 -4 3 -8 14 -8 25 0 31 -98 123 -146 137 -32 9 -392
12 -1545 11 -827 0 -1516 -4 -1530 -9z"/>
<path d="M3622 4550 c-30 -14 -152 -129 -441 -417 -219 -219 -407 -406 -418
-416 -20 -17 -24 -14 -201 161 -152 152 -187 182 -228 196 -145 48 -294 -41
-322 -192 -5 -28 -5 -56 -1 -63 4 -7 6 -16 3 -21 -2 -4 5 -28 17 -53 29 -62
543 -577 608 -609 36 -18 62 -23 117 -22 61 1 77 5 114 31 51 35 1073 1055
1065 1063 -2 3 0 11 6 18 13 15 22 58 21 104 0 73 -20 119 -72 169 -72 69
-180 90 -268 51z"/>
<path d="M5139 4166 c-2 -3 -23 -7 -45 -10 -77 -9 -120 -35 -181 -109 -15 -19
-39 -105 -37 -137 2 -39 16 -90 25 -96 5 -3 7 -10 4 -15 -4 -5 -1 -9 6 -9 7 0
10 -3 7 -6 -9 -8 74 -84 84 -78 4 3 8 2 8 -3 0 -30 60 -31 1553 -32 1680 0
1577 -4 1648 69 55 57 73 96 74 169 2 75 -24 138 -77 187 -33 30 -100 61 -128
59 -8 -1 -23 3 -32 7 -10 5 -18 5 -18 1 0 -10 -47 -10 -56 0 -3 3 -17 2 -30
-3 -15 -6 -24 -6 -24 0 0 6 -9 6 -25 0 -16 -6 -25 -6 -25 1 0 6 -7 6 -19 -1
-13 -7 -22 -7 -26 0 -4 7 -12 7 -25 0 -13 -7 -21 -7 -25 0 -5 8 -11 8 -20 0
-7 -6 -16 -7 -19 -2 -3 5 -28 6 -56 2 -27 -4 -50 -3 -50 2 0 5 -9 4 -19 -2
-13 -7 -22 -7 -26 0 -4 7 -12 7 -25 0 -13 -7 -21 -7 -25 0 -5 8 -11 8 -20 0
-9 -7 -15 -8 -19 -1 -5 7 -15 7 -31 1 -16 -6 -25 -6 -25 0 0 6 -9 6 -25 0 -16
-6 -25 -6 -25 1 0 6 -7 6 -19 -1 -13 -7 -22 -7 -26 0 -4 7 -13 7 -24 0 -12 -6
-22 -5 -28 1 -8 8 -13 7 -17 0 -5 -7 -13 -8 -25 -2 -9 5 -23 6 -31 1 -7 -4
-24 -4 -37 1 -14 5 -23 5 -23 -1 0 -6 -9 -6 -23 -1 -13 5 -30 5 -37 1 -8 -5
-19 -6 -25 -2 -14 9 -37 9 -57 -1 -11 -5 -18 -4 -18 3 0 8 -6 8 -20 0 -14 -8
-20 -8 -20 0 0 8 -6 8 -20 0 -14 -8 -20 -8 -20 0 0 8 -6 8 -20 0 -14 -8 -20
-8 -20 0 0 8 -6 8 -20 0 -14 -8 -20 -8 -20 0 0 8 -6 8 -20 0 -14 -8 -20 -8
-20 0 0 8 -6 8 -20 0 -14 -8 -20 -8 -20 0 0 6 -5 8 -11 5 -16 -10 -79 -12 -79
-2 0 4 -8 3 -18 -2 -11 -6 -24 -6 -34 0 -11 6 -19 6 -23 -1 -4 -7 -13 -7 -26
0 -12 7 -19 7 -19 1 0 -7 -9 -7 -25 -1 -15 6 -26 6 -30 0 -4 -7 -13 -6 -25 0
-13 7 -21 7 -25 0 -4 -7 -13 -7 -26 0 -13 8 -19 7 -19 0 0 -7 -6 -8 -19 0 -13
7 -22 7 -26 0 -4 -7 -13 -7 -26 0 -12 7 -19 7 -19 1 0 -7 -9 -7 -25 -1 -15 6
-26 6 -30 0 -4 -7 -13 -6 -25 0 -13 7 -21 7 -25 0 -4 -6 -13 -7 -23 -1 -11 6
-24 6 -35 0 -9 -6 -17 -6 -17 -2 0 10 -63 8 -79 -2 -6 -3 -11 -1 -11 5 0 8 -6
8 -20 0 -14 -8 -20 -8 -20 0 0 8 -6 8 -20 0 -14 -8 -20 -8 -20 0 0 8 -6 8 -20
0 -14 -8 -20 -8 -20 0 0 8 -6 8 -20 0 -14 -8 -20 -8 -20 0 0 8 -6 8 -20 0 -14
-8 -20 -8 -20 0 0 8 -6 8 -20 0 -14 -8 -20 -8 -20 0 0 6 -5 8 -11 5 -16 -10
-79 -12 -79 -2 0 4 -9 3 -19 -3 -13 -7 -22 -7 -26 0 -4 7 -12 7 -25 0 -13 -7
-21 -7 -25 0 -5 8 -11 8 -20 0 -9 -7 -15 -8 -19 -1 -5 7 -15 7 -31 1 -16 -6
-25 -6 -25 0 0 6 -9 6 -25 0 -16 -6 -25 -6 -25 1 0 6 -7 6 -19 -1 -13 -7 -22
-7 -26 0 -4 7 -13 7 -24 0 -12 -6 -22 -5 -28 1 -8 8 -13 7 -17 0 -5 -7 -13 -8
-25 -2 -9 5 -23 6 -31 1 -7 -4 -24 -4 -37 1 -14 5 -23 5 -23 -1 0 -6 -9 -6
-23 -1 -13 5 -30 5 -37 1 -8 -5 -19 -5 -26 0 -6 6 -13 8 -15 6z"/>
<path d="M3663 2529 c-13 -4 -23 -6 -23 -3 0 22 -143 -111 -490 -459 l-404
-404 -173 172 c-100 99 -190 181 -215 193 -159 81 -348 -38 -348 -219 0 -94
19 -120 309 -409 146 -147 278 -275 293 -284 52 -34 129 -47 198 -33 49 10
134 89 602 557 368 368 521 528 533 556 50 118 -10 272 -124 320 -42 18 -128
25 -158 13z"/>
<path d="M5058 2200 c-15 -4 -29 -5 -32 -2 -3 3 -6 0 -6 -6 0 -7 -6 -12 -13
-12 -23 0 -88 -71 -109 -118 -26 -59 -26 -135 0 -193 18 -41 86 -119 103 -119
4 0 20 -5 36 -12 15 -6 65 -12 109 -13 45 -1 86 -5 92 -9 6 -3 13 -3 15 1 5 7
114 9 142 3 6 -1 12 -2 15 -1 7 3 363 3 375 1 6 -1 15 -1 20 0 13 3 377 3 390
0 6 -1 13 -1 18 0 20 6 115 5 134 -2 12 -4 24 -4 27 0 5 9 130 7 144 -2 6 -3
13 -3 15 1 5 7 114 9 142 3 6 -1 12 -2 15 -1 7 3 363 3 375 1 6 -1 15 -1 20 0
24 6 383 2 393 -4 6 -3 13 -3 15 1 5 7 114 9 142 3 6 -1 12 -2 15 -1 3 1 109
3 235 4 l230 2 47 27 c41 25 121 108 103 108 -4 0 -2 6 4 14 18 21 26 133 11
151 -7 8 -10 15 -6 15 12 0 -32 75 -61 102 -15 15 -48 36 -73 47 -45 20 -58
20 -1550 20 -828 0 -1517 -4 -1532 -9z"/>
</g>
</svg>
